<svg width="58" height="58" viewBox="0 0 58 58" fill="none" xmlns="http://www.w3.org/2000/svg">
<path d="M32.8456 28.9998L43.6073 18.2381C44.118 17.7283 44.4053 17.0364 44.406 16.3147C44.4066 15.5931 44.1205 14.9007 43.6107 14.39C43.1008 13.8792 42.409 13.5919 41.6873 13.5913C40.9656 13.5906 40.2733 13.8767 39.7625 14.3866L29.0008 25.1483L18.2391 14.3866C17.7283 13.8758 17.0356 13.5889 16.3133 13.5889C15.591 13.5889 14.8983 13.8758 14.3875 14.3866C13.8768 14.8973 13.5898 15.59 13.5898 16.3123C13.5898 17.0346 13.8768 17.7274 14.3875 18.2381L25.1492 28.9998L14.3875 39.7615C13.8768 40.2723 13.5898 40.965 13.5898 41.6873C13.5898 42.4096 13.8768 43.1024 14.3875 43.6131C14.8983 44.1238 15.591 44.4108 16.3133 44.4108C17.0356 44.4108 17.7283 44.1238 18.2391 43.6131L29.0008 32.8514L39.7625 43.6131C40.2733 44.1238 40.966 44.4108 41.6883 44.4108C42.4106 44.4108 43.1033 44.1238 43.6141 43.6131C44.1248 43.1024 44.4118 42.4096 44.4118 41.6873C44.4118 40.965 44.1248 40.2723 43.6141 39.7615L32.8456 28.9998Z" fill="#EBE9FC"/>
</svg>
