<svg width="25" height="24" viewBox="0 0 25 24" fill="none" xmlns="http://www.w3.org/2000/svg">
<path d="M16.9955 2H8.92552C7.34867 2.00185 5.83695 2.62914 4.72204 3.74424C3.60714 4.85933 2.9801 6.37115 2.97852 7.948L2.97852 16.018C2.98037 17.5948 3.60766 19.1066 4.72275 20.2215C5.83785 21.3364 7.34967 21.9634 8.92652 21.965H16.9965C18.5734 21.9631 20.0851 21.3359 21.2 20.2208C22.3149 19.1057 22.9419 17.5938 22.9435 16.017V7.947C22.9417 6.37015 22.3144 4.85844 21.1993 3.74353C20.0842 2.62862 18.5724 2.00159 16.9955 2V2ZM20.9355 16.017C20.9355 16.5344 20.8336 17.0468 20.6356 17.5248C20.4376 18.0028 20.1474 18.4371 19.7815 18.803C19.4157 19.1689 18.9813 19.4591 18.5033 19.6571C18.0253 19.8551 17.5129 19.957 16.9955 19.957H8.92552C7.88074 19.9567 6.87884 19.5415 6.14016 18.8026C5.40148 18.0638 4.98652 17.0618 4.98652 16.017V7.947C4.98678 6.90222 5.402 5.90032 6.14087 5.16165C6.87973 4.42297 7.88174 4.008 8.92652 4.008H16.9965C18.0413 4.00827 19.0432 4.42349 19.7819 5.16235C20.5205 5.90122 20.9355 6.90322 20.9355 7.948V16.018V16.017Z" fill="white"/>
<path d="M12.9603 6.81934C11.5918 6.82145 10.2799 7.36612 9.31224 8.33394C8.34461 9.30176 7.80019 10.6138 7.79834 11.9823C7.79993 13.3513 8.34436 14.6637 9.31224 15.6317C10.2801 16.5998 11.5924 17.1445 12.9613 17.1463C14.3304 17.1447 15.643 16.6002 16.6111 15.6321C17.5792 14.664 18.1238 13.3514 18.1253 11.9823C18.1232 10.6134 17.5783 9.30122 16.61 8.33353C15.6418 7.36584 14.3293 6.82166 12.9603 6.82034V6.81934ZM12.9603 15.1383C12.1236 15.1383 11.3211 14.8059 10.7294 14.2143C10.1377 13.6226 9.80534 12.8201 9.80534 11.9833C9.80534 11.1466 10.1377 10.3441 10.7294 9.75241C11.3211 9.16074 12.1236 8.82834 12.9603 8.82834C13.7971 8.82834 14.5996 9.16074 15.1913 9.75241C15.7829 10.3441 16.1153 11.1466 16.1153 11.9833C16.1153 12.8201 15.7829 13.6226 15.1913 14.2143C14.5996 14.8059 13.7971 15.1383 12.9603 15.1383Z" fill="white"/>
<path d="M18.1345 8.09509C18.8176 8.09509 19.3715 7.54127 19.3715 6.85809C19.3715 6.17492 18.8176 5.62109 18.1345 5.62109C17.4513 5.62109 16.8975 6.17492 16.8975 6.85809C16.8975 7.54127 17.4513 8.09509 18.1345 8.09509Z" fill="white"/>
</svg>
