<svg width="25" height="24" viewBox="0 0 25 24" fill="none" xmlns="http://www.w3.org/2000/svg">
<path d="M22.9375 13.7194V21.0984H18.6595V14.2134C18.6595 12.4834 18.0405 11.3034 16.4925 11.3034C15.3105 11.3034 14.6065 12.0994 14.2975 12.8684C14.1845 13.1434 14.1555 13.5264 14.1555 13.9114V21.0984H9.87552C9.87552 21.0984 9.93352 9.43837 9.87552 8.22937H14.1555V10.0534L14.1275 10.0954H14.1555V10.0534C14.7235 9.17837 15.7385 7.92737 18.0115 7.92737C20.8265 7.92737 22.9375 9.76737 22.9375 13.7194ZM5.39952 2.02637C3.93652 2.02637 2.97852 2.98637 2.97852 4.24937C2.97852 5.48437 3.90852 6.47337 5.34352 6.47337H5.37152C6.86452 6.47337 7.79152 5.48437 7.79152 4.24937C7.76552 2.98637 6.86552 2.02637 5.40052 2.02637H5.39952ZM3.23252 21.0984H7.51052V8.22937H3.23252V21.0984Z" fill="white"/>
</svg>
