<svg width="21" height="17" viewBox="0 0 21 17" fill="none" xmlns="http://www.w3.org/2000/svg">
<path d="M20.9785 1.90668C20.2289 2.23405 19.435 2.44871 18.6225 2.54368C19.4753 2.04291 20.1166 1.24878 20.4265 0.309676C19.6185 0.780004 18.7373 1.11128 17.8195 1.28968C17.4331 0.884881 16.9682 0.563063 16.4533 0.343854C15.9383 0.124645 15.3842 0.0126411 14.8245 0.0146757C12.5585 0.0146757 10.7215 1.82468 10.7215 4.05468C10.7215 4.37068 10.7575 4.67968 10.8275 4.97468C9.20209 4.89737 7.61063 4.48208 6.15468 3.75531C4.69874 3.02855 3.41027 2.00626 2.37152 0.753676C2.00734 1.36808 1.81593 2.06946 1.81752 2.78368C1.81821 3.45164 1.98534 4.10891 2.30381 4.69607C2.62227 5.28323 3.08202 5.78179 3.64152 6.14668C2.991 6.12568 2.35454 5.952 1.78352 5.63968V5.68968C1.78352 7.64768 3.19852 9.28068 5.07352 9.65268C4.72113 9.74617 4.3581 9.79357 3.99352 9.79368C3.72852 9.79368 3.47152 9.76868 3.22052 9.71868C3.4886 10.5266 4.00162 11.231 4.68833 11.734C5.37505 12.237 6.20136 12.5137 7.05252 12.5257C5.59258 13.6502 3.80034 14.2577 1.95752 14.2527C1.62552 14.2527 1.29952 14.2327 0.978516 14.1967C2.85977 15.3874 5.04111 16.018 7.26752 16.0147C14.8145 16.0147 18.9405 9.85768 18.9405 4.51868L18.9265 3.99568C19.7314 3.42935 20.4267 2.72152 20.9785 1.90668Z" fill="white"/>
</svg>
