<svg width="20" height="14" viewBox="0 0 20 14" fill="none" xmlns="http://www.w3.org/2000/svg">
<path d="M15.8335 0.016625H4.16648C1.87648 0.016625 0.0214844 1.85163 0.0214844 4.11563V9.88363C0.0214844 12.1476 1.87748 13.9836 4.16648 13.9836H15.8335C18.1235 13.9836 19.9785 12.1476 19.9785 9.88363V4.11563C19.9785 1.85163 18.1225 0.015625 15.8335 0.015625V0.016625ZM13.0305 7.27963L7.57348 9.85462C7.5402 9.87065 7.5034 9.878 7.46652 9.87598C7.42963 9.87396 7.39385 9.86264 7.36252 9.84308C7.33118 9.82352 7.3053 9.79635 7.28729 9.7641C7.26927 9.73185 7.25971 9.69557 7.25948 9.65863V4.34963C7.26015 4.3125 7.2702 4.27614 7.28871 4.24395C7.30721 4.21176 7.33356 4.18477 7.3653 4.1655C7.39705 4.14624 7.43315 4.13532 7.47025 4.13377C7.50735 4.13221 7.54424 4.14008 7.57748 4.15663L13.0355 6.89163C13.0718 6.90976 13.1023 6.93777 13.1235 6.97245C13.1446 7.00713 13.1556 7.04708 13.1551 7.08769C13.1545 7.12831 13.1426 7.16796 13.1205 7.20209C13.0985 7.23621 13.0673 7.26344 13.0305 7.28063V7.27963Z" fill="white"/>
</svg>
